HIERARCHY
ROOT tetra_large
{
	OFFSET 0.000000 0.000000 0.000000
	CHANNELS 6 Xposition Yposition Zposition Yrotation Xrotation Zrotation
	End Site
	{
		OFFSET 0.000000 0.000000 0.000000
	}
}
MOTION
Frames: 79
Frame Time: 0.008333334
-2.329742 3.061500 1.998309 -104.418100 -34.900880 11.953120 
-2.327430 3.061805 2.009449 -104.404600 -34.954830 11.577880 
-2.326396 3.062694 2.020488 -104.055800 -35.127230 10.820130 
-2.324839 3.063186 2.033113 -103.779300 -35.169340 10.137220 
-2.324312 3.062628 2.045980 -103.515900 -35.158450 9.050138 
-2.324124 3.062208 2.058306 -103.429600 -35.139860 8.046907 
-2.323011 3.060829 2.071624 -103.361100 -34.909790 6.817628 
-2.322362 3.058888 2.085479 -103.271600 -34.721440 5.384763 
-2.321895 3.057524 2.100837 -103.315600 -34.663210 3.993306 
-2.321221 3.056098 2.117156 -103.488800 -34.524780 2.326992 
-2.320041 3.055084 2.134030 -103.489000 -34.319610 0.653846 
-2.319648 3.053591 2.151047 -103.592500 -34.139860 -1.220337 
-2.321135 3.052011 2.168944 -103.800700 -33.858520 -3.260223 
-2.324822 3.049925 2.189853 -104.075400 -33.390530 -5.492554 
-2.328984 3.048769 2.212232 -104.554600 -32.908540 -7.908813 
-2.332485 3.047373 2.236912 -104.896400 -32.598240 -10.632390 
-2.337353 3.046725 2.264385 -105.213700 -32.452420 -13.387450 
-2.340746 3.046338 2.294266 -105.246000 -32.135380 -16.417210 
-2.345318 3.044713 2.325163 -105.304800 -32.152160 -19.412870 
-2.348859 3.042024 2.355831 -105.203800 -32.004760 -22.482090 
-2.353576 3.037637 2.385806 -105.576500 -31.774630 -25.297180 
-2.357614 3.032955 2.415257 -105.667800 -31.654880 -28.116150 
-2.362822 3.027359 2.443801 -105.992500 -31.521090 -30.981630 
-2.367903 3.020915 2.471653 -106.444200 -31.442990 -33.727970 
-2.372629 3.015401 2.498974 -106.807900 -31.664520 -36.527950 
-2.375716 3.010061 2.526055 -107.153800 -31.657170 -39.082000 
-2.376669 3.005478 2.553819 -107.546800 -31.873720 -41.565730 
-2.376989 3.001946 2.580222 -107.963200 -31.939940 -43.834630 
-2.377639 2.998541 2.604096 -108.666600 -32.307130 -46.130370 
-2.379654 2.994586 2.626718 -109.501900 -32.580290 -48.218050 
-2.382590 2.988129 2.647074 -110.555800 -32.754940 -50.331970 
-2.387349 2.980316 2.666907 -111.873900 -32.801330 -52.404630 
-2.392684 2.971342 2.685622 -113.243200 -32.724520 -54.513400 
-2.397252 2.961788 2.703074 -114.478600 -32.607670 -56.547300 
-2.403534 2.951952 2.723006 -115.640800 -32.456510 -58.110600 
-2.409935 2.943365 2.745483 -116.395000 -32.360810 -59.591740 
-2.418740 2.935244 2.769633 -116.961000 -32.145480 -61.035520 
-2.424622 2.927265 2.794334 -117.359000 -32.006350 -62.459470 
-2.430351 2.921446 2.819255 -117.979000 -32.166780 -63.871280 
-2.435572 2.914689 2.843086 -118.882900 -32.206880 -65.159060 
-2.439739 2.909055 2.862530 -119.891900 -32.661770 -66.382810 
-2.445673 2.903075 2.881123 -121.086200 -33.113890 -67.659240 
-2.451873 2.897096 2.900936 -121.977900 -33.486760 -68.903780 
-2.457895 2.889562 2.921788 -122.818500 -33.837250 -70.400330 
-2.464373 2.881697 2.944281 -123.484000 -34.337070 -72.059230 
-2.469388 2.872747 2.969252 -124.149200 -34.880460 -73.554600 
-2.473874 2.863075 2.995893 -124.351000 -35.532990 -75.304600 
-2.478363 2.852663 3.024532 -124.376600 -36.199650 -76.821900 
-2.483270 2.840932 3.052215 -123.940100 -36.449770 -78.388920 
-2.488915 2.828558 3.078760 -123.454400 -36.610200 -79.646090 
-2.493960 2.815451 3.101275 -123.102800 -36.493560 -80.665740 
-2.499063 2.803921 3.119917 -122.962900 -36.387080 -81.480990 
-2.502599 2.793814 3.135640 -123.076100 -36.534670 -82.101260 
-2.504944 2.784844 3.150139 -123.564400 -36.809540 -82.513060 
-2.506625 2.777065 3.161486 -124.026100 -37.343570 -82.967010 
-2.507916 2.768862 3.172755 -124.653700 -37.962740 -83.643890 
-2.509363 2.760767 3.184559 -124.907000 -38.521610 -84.635800 
-2.512010 2.751935 3.198661 -125.096800 -39.344700 -85.626680 
-2.515199 2.740946 3.214118 -125.010700 -40.078430 -87.162050 
-2.519145 2.728509 3.231017 -124.455000 -40.896330 -89.016330 
-2.523475 2.717382 3.246591 -123.869900 -41.495420 -90.448030 
-2.524108 2.712359 3.250609 -124.690900 -42.227600 -90.742460 
-2.525820 2.708012 3.252928 -125.399600 -42.420470 -90.665370 
-2.526431 2.707576 3.249481 -126.544100 -42.842710 -90.399630 
-2.526123 2.708708 3.245287 -127.667800 -43.180790 -89.920530 
-2.526431 2.709615 3.243297 -128.780300 -43.864500 -89.738890 
-2.526414 2.710160 3.243789 -129.586900 -44.645750 -90.032560 
-2.526165 2.710052 3.246249 -129.820300 -45.601930 -91.049770 
-2.525927 2.710037 3.248300 -129.998400 -46.826720 -92.318210 
-2.525565 2.710820 3.255485 -129.970200 -48.251400 -93.708950 
-2.524839 2.710691 3.263819 -129.510200 -49.607820 -95.393190 
-2.526895 2.708875 3.274654 -128.782800 -50.939270 -97.237640 
-2.528682 2.705827 3.283766 -128.052900 -51.970400 -99.327640 
-2.532911 2.703621 3.293090 -127.185900 -52.667050 -101.125900 
-2.537331 2.699327 3.300717 -126.584600 -53.148960 -102.728500 
-2.542506 2.694966 3.308637 -126.061600 -53.495970 -104.244000 
-2.549382 2.691050 3.314828 -125.549900 -53.612120 -105.667100 
-2.559039 2.686324 3.321480 -124.984400 -53.494140 -107.094400 
-2.569526 2.681293 3.325499 -124.798400 -53.128780 -108.289300 
